<svg width="18" height="14" viewBox="0 0 18 14" fill="none" xmlns="http://www.w3.org/2000/svg">
<path fill-rule="evenodd" clip-rule="evenodd" d="M9.25864 1.24282C10.1529 0.447075 11.3659 0 12.6308 0C13.8958 0 15.1088 0.447075 16.0031 1.24282C16.8975 2.03797 17.4001 3.11695 17.4001 4.24203C17.4001 5.36712 16.8975 6.4461 16.0029 7.24136L9.51858 13.0089C9.23212 13.2637 8.76768 13.2637 8.48122 13.0089L1.99686 7.24136C0.134509 5.58488 0.134509 2.89919 1.99686 1.24271C3.85922 -0.413771 6.87869 -0.413771 8.74105 1.24271L8.9999 1.47295L9.25864 1.24282ZM8.99992 11.6249L14.1881 7.01026L14.9657 6.31857C15.5851 5.76793 15.9331 5.02094 15.9331 4.24204C15.9331 3.46313 15.5851 2.71615 14.9657 2.1655C14.3464 1.61439 13.5066 1.30488 12.6309 1.30488C11.7552 1.30488 10.9153 1.61439 10.2961 2.1654L9.5186 2.85698C9.23215 3.11177 8.7677 3.11177 8.48124 2.85698L7.70371 2.1654C6.41427 1.0185 4.32368 1.0185 3.03425 2.1654C1.74481 3.31229 1.74481 5.17178 3.03425 6.31867L8.99992 11.6249Z" fill="#1D1F22"/>
<mask id="mask0_23242_939" style="mask-type:alpha" maskUnits="userSpaceOnUse" x="2" y="1" width="14" height="11">
<path fill-rule="evenodd" clip-rule="evenodd" d="M9.00014 11.6249L14.1883 7.01025L14.9659 6.31856C15.5853 5.76792 15.9333 5.02094 15.9333 4.24203C15.9333 3.46312 15.5853 2.71614 14.9659 2.1655C14.3466 1.61438 13.5068 1.30487 12.6311 1.30487C11.7554 1.30487 10.9156 1.61438 10.2964 2.16539L9.51882 2.85698C9.23236 3.11177 8.76792 3.11177 8.48146 2.85698L7.70392 2.16539C6.41448 1.0185 4.3239 1.0185 3.03446 2.16539C1.74502 3.31229 1.74502 5.17177 3.03446 6.31867L9.00014 11.6249Z" fill="white"/>
</mask>
<g mask="url(#mask0_23242_939)">
</g>
</svg>
