<svg width="16" height="16" viewBox="0 0 16 16" fill="none" xmlns="http://www.w3.org/2000/svg">
<path d="M8 0.5C3.86421 0.5 0.5 3.86421 0.5 8C0.5 12.1358 3.86421 15.5 8 15.5C12.1358 15.5 15.5 12.1358 15.5 8C15.5 3.86421 12.1358 0.5 8 0.5ZM8 1.59756C11.5427 1.59756 14.4024 4.45726 14.4024 8C14.4024 11.5427 11.5427 14.4024 8 14.4024C4.45726 14.4024 1.59756 11.5427 1.59756 8C1.59756 4.45726 4.45726 1.59756 8 1.59756ZM8 2.5122C7.69704 2.5122 7.45122 2.75801 7.45122 3.06098V8C7.45122 8.20294 7.56198 8.37943 7.72561 8.47448L11.6871 10.7611C11.9493 10.9125 12.2844 10.8232 12.4359 10.561C12.5874 10.2987 12.4981 9.96361 12.2359 9.81211L8.54878 7.68559V3.06101C8.54878 2.75805 8.30296 2.51223 8 2.51223V2.5122Z" fill="#1D1F22"/>
</svg>
