<svg width="16" height="11" viewBox="0 0 16 11" fill="none" xmlns="http://www.w3.org/2000/svg">
<path d="M1.49 0.5C0.947298 0.5 0.5 0.947298 0.5 1.49V9.08C0.5 9.6227 0.947298 10.07 1.49 10.07H14.69C15.2327 10.07 15.68 9.6227 15.68 9.08V1.49C15.68 0.947298 15.2327 0.5 14.69 0.5H1.49ZM1.7014 1.16H14.4787L8.42003 6.33176C8.26792 6.46131 7.91215 6.46131 7.76003 6.33176L1.7014 1.16ZM1.16 1.56735L5.48614 5.25411L1.16 8.99235V1.56735ZM15.02 1.56735V8.99235L10.6939 5.25411L15.02 1.56735ZM5.99136 5.69235L7.33199 6.83187C7.76705 7.20377 8.41287 7.20377 8.84793 6.83187L10.1886 5.69235L14.4888 9.40997H1.69105L5.99136 5.69235Z" fill="#1D1F22"/>
</svg>
